<?xml version="1.0" standalone="yes"?>
<!-- SVG graphic -->
<svg xmlns='http://www.w3.org/2000/svg' xmlns:xlink='http://www.w3.org/1999/xlink'
 version="1.1">
<rect x="0" y="0" width="6" height="200" stroke="black" stroke-width="1" fill="blue" tooltip="enable"><title>(0,10029)</title></rect><rect x="6" y="43.9725" width="6" height="156.028" stroke="black" stroke-width="1" fill="blue" tooltip="enable"><title>(0.0394808,7824)</title></rect><rect x="12" y="60.3051" width="6" height="139.695" stroke="black" stroke-width="1" fill="blue" tooltip="enable"><title>(0.0789616,7005)</title></rect><rect x="18" y="75.1221" width="6" height="124.878" stroke="black" stroke-width="1" fill="blue" tooltip="enable"><title>(0.118442,6262)</title></rect><rect x="24" y="85.5718" width="6" height="114.428" stroke="black" stroke-width="1" fill="blue" tooltip="enable"><title>(0.157923,5738)</title></rect><rect x="30" y="95.7224" width="6" height="104.278" stroke="black" stroke-width="1" fill="blue" tooltip="enable"><title>(0.197404,5229)</title></rect><rect x="36" y="104.078" width="6" height="95.9218" stroke="black" stroke-width="1" fill="blue" tooltip="enable"><title>(0.236885,4810)</title></rect><rect x="42" y="110.101" width="6" height="89.8993" stroke="black" stroke-width="1" fill="blue" tooltip="enable"><title>(0.276366,4508)</title></rect><rect x="48" y="116.602" width="6" height="83.3981" stroke="black" stroke-width="1" fill="blue" tooltip="enable"><title>(0.315846,4182)</title></rect><rect x="54" y="124.319" width="6" height="75.6805" stroke="black" stroke-width="1" fill="blue" tooltip="enable"><title>(0.355327,3795)</title></rect><rect x="60" y="132.934" width="6" height="67.0655" stroke="black" stroke-width="1" fill="blue" tooltip="enable"><title>(0.394808,3363)</title></rect><rect x="66" y="138.977" width="6" height="61.023" stroke="black" stroke-width="1" fill="blue" tooltip="enable"><title>(0.434289,3060)</title></rect><rect x="72" y="142.646" width="6" height="57.3537" stroke="black" stroke-width="1" fill="blue" tooltip="enable"><title>(0.47377,2876)</title></rect><rect x="78" y="149.646" width="6" height="50.354" stroke="black" stroke-width="1" fill="blue" tooltip="enable"><title>(0.51325,2525)</title></rect><rect x="84" y="151.381" width="6" height="48.619" stroke="black" stroke-width="1" fill="blue" tooltip="enable"><title>(0.552731,2438)</title></rect><rect x="90" y="157.164" width="6" height="42.8358" stroke="black" stroke-width="1" fill="blue" tooltip="enable"><title>(0.592212,2148)</title></rect><rect x="96" y="161.073" width="6" height="38.9271" stroke="black" stroke-width="1" fill="blue" tooltip="enable"><title>(0.631693,1952)</title></rect><rect x="102" y="165.54" width="6" height="34.4601" stroke="black" stroke-width="1" fill="blue" tooltip="enable"><title>(0.671174,1728)</title></rect><rect x="108" y="167.813" width="6" height="32.1867" stroke="black" stroke-width="1" fill="blue" tooltip="enable"><title>(0.710654,1614)</title></rect><rect x="114" y="170.904" width="6" height="29.0956" stroke="black" stroke-width="1" fill="blue" tooltip="enable"><title>(0.750135,1459)</title></rect><rect x="120" y="174.055" width="6" height="25.9448" stroke="black" stroke-width="1" fill="blue" tooltip="enable"><title>(0.789616,1301)</title></rect><rect x="126" y="176.708" width="6" height="23.2925" stroke="black" stroke-width="1" fill="blue" tooltip="enable"><title>(0.829097,1168)</title></rect><rect x="132" y="179.42" width="6" height="20.5803" stroke="black" stroke-width="1" fill="blue" tooltip="enable"><title>(0.868578,1032)</title></rect><rect x="138" y="180.576" width="6" height="19.4237" stroke="black" stroke-width="1" fill="blue" tooltip="enable"><title>(0.908058,974)</title></rect><rect x="144" y="180.696" width="6" height="19.304" stroke="black" stroke-width="1" fill="blue" tooltip="enable"><title>(0.947539,968)</title></rect><rect x="150" y="182.87" width="6" height="17.1303" stroke="black" stroke-width="1" fill="blue" tooltip="enable"><title>(0.98702,859)</title></rect><rect x="156" y="184.924" width="6" height="15.0763" stroke="black" stroke-width="1" fill="blue" tooltip="enable"><title>(1.0265,756)</title></rect><rect x="162" y="185.582" width="6" height="14.4182" stroke="black" stroke-width="1" fill="blue" tooltip="enable"><title>(1.06598,723)</title></rect><rect x="168" y="187.177" width="6" height="12.8228" stroke="black" stroke-width="1" fill="blue" tooltip="enable"><title>(1.10546,643)</title></rect><rect x="174" y="187.416" width="6" height="12.5835" stroke="black" stroke-width="1" fill="blue" tooltip="enable"><title>(1.14494,631)</title></rect><rect x="180" y="188.932" width="6" height="11.0679" stroke="black" stroke-width="1" fill="blue" tooltip="enable"><title>(1.18442,555)</title></rect><rect x="186" y="189.57" width="6" height="10.4298" stroke="black" stroke-width="1" fill="blue" tooltip="enable"><title>(1.2239,523)</title></rect><rect x="192" y="191.046" width="6" height="8.95403" stroke="black" stroke-width="1" fill="blue" tooltip="enable"><title>(1.26339,449)</title></rect><rect x="198" y="191.146" width="6" height="8.85432" stroke="black" stroke-width="1" fill="blue" tooltip="enable"><title>(1.30287,444)</title></rect><rect x="204" y="191.325" width="6" height="8.67484" stroke="black" stroke-width="1" fill="blue" tooltip="enable"><title>(1.34235,435)</title></rect><rect x="210" y="192.382" width="6" height="7.61791" stroke="black" stroke-width="1" fill="blue" tooltip="enable"><title>(1.38183,382)</title></rect><rect x="216" y="192.821" width="6" height="7.17918" stroke="black" stroke-width="1" fill="blue" tooltip="enable"><title>(1.42131,360)</title></rect><rect x="222" y="193.22" width="6" height="6.78034" stroke="black" stroke-width="1" fill="blue" tooltip="enable"><title>(1.46079,340)</title></rect><rect x="228" y="193.559" width="6" height="6.44132" stroke="black" stroke-width="1" fill="blue" tooltip="enable"><title>(1.50027,323)</title></rect><rect x="234" y="194.416" width="6" height="5.58381" stroke="black" stroke-width="1" fill="blue" tooltip="enable"><title>(1.53975,280)</title></rect><rect x="240" y="194.057" width="6" height="5.94277" stroke="black" stroke-width="1" fill="blue" tooltip="enable"><title>(1.57923,298)</title></rect><rect x="246" y="195.314" width="6" height="4.68641" stroke="black" stroke-width="1" fill="blue" tooltip="enable"><title>(1.61871,235)</title></rect><rect x="252" y="195.852" width="6" height="4.14797" stroke="black" stroke-width="1" fill="blue" tooltip="enable"><title>(1.65819,208)</title></rect><rect x="258" y="195.872" width="6" height="4.12803" stroke="black" stroke-width="1" fill="blue" tooltip="enable"><title>(1.69767,207)</title></rect><rect x="264" y="195.573" width="6" height="4.42716" stroke="black" stroke-width="1" fill="blue" tooltip="enable"><title>(1.73716,222)</title></rect><rect x="270" y="196.071" width="6" height="3.92861" stroke="black" stroke-width="1" fill="blue" tooltip="enable"><title>(1.77664,197)</title></rect><rect x="276" y="196.351" width="6" height="3.64942" stroke="black" stroke-width="1" fill="blue" tooltip="enable"><title>(1.81612,183)</title></rect><rect x="282" y="196.311" width="6" height="3.6893" stroke="black" stroke-width="1" fill="blue" tooltip="enable"><title>(1.8556,185)</title></rect><rect x="288" y="196.291" width="6" height="3.70924" stroke="black" stroke-width="1" fill="blue" tooltip="enable"><title>(1.89508,186)</title></rect><rect x="294" y="196.729" width="6" height="3.27052" stroke="black" stroke-width="1" fill="blue" tooltip="enable"><title>(1.93456,164)</title></rect><rect x="300" y="197.009" width="6" height="2.99133" stroke="black" stroke-width="1" fill="blue" tooltip="enable"><title>(1.97404,150)</title></rect><rect x="306" y="197.068" width="6" height="2.9315" stroke="black" stroke-width="1" fill="blue" tooltip="enable"><title>(2.01352,147)</title></rect><rect x="312" y="196.61" width="6" height="3.39017" stroke="black" stroke-width="1" fill="blue" tooltip="enable"><title>(2.053,170)</title></rect><rect x="318" y="197.487" width="6" height="2.51271" stroke="black" stroke-width="1" fill="blue" tooltip="enable"><title>(2.09248,126)</title></rect><rect x="324" y="197.946" width="6" height="2.05404" stroke="black" stroke-width="1" fill="blue" tooltip="enable"><title>(2.13196,103)</title></rect><rect x="330" y="197.766" width="6" height="2.23352" stroke="black" stroke-width="1" fill="blue" tooltip="enable"><title>(2.17144,112)</title></rect><rect x="336" y="197.946" width="6" height="2.05404" stroke="black" stroke-width="1" fill="blue" tooltip="enable"><title>(2.21092,103)</title></rect><rect x="342" y="197.906" width="6" height="2.09393" stroke="black" stroke-width="1" fill="blue" tooltip="enable"><title>(2.25041,105)</title></rect><rect x="348" y="198.225" width="6" height="1.77485" stroke="black" stroke-width="1" fill="blue" tooltip="enable"><title>(2.28989,89)</title></rect><rect x="354" y="198.105" width="6" height="1.89451" stroke="black" stroke-width="1" fill="blue" tooltip="enable"><title>(2.32937,95)</title></rect><rect x="360" y="198.524" width="6" height="1.47572" stroke="black" stroke-width="1" fill="blue" tooltip="enable"><title>(2.36885,74)</title></rect><rect x="366" y="198.185" width="6" height="1.81474" stroke="black" stroke-width="1" fill="blue" tooltip="enable"><title>(2.40833,91)</title></rect><rect x="372" y="198.564" width="6" height="1.43584" stroke="black" stroke-width="1" fill="blue" tooltip="enable"><title>(2.44781,72)</title></rect><rect x="378" y="198.564" width="6" height="1.43584" stroke="black" stroke-width="1" fill="blue" tooltip="enable"><title>(2.48729,72)</title></rect><rect x="384" y="198.843" width="6" height="1.15665" stroke="black" stroke-width="1" fill="blue" tooltip="enable"><title>(2.52677,58)</title></rect><rect x="390" y="198.684" width="6" height="1.31618" stroke="black" stroke-width="1" fill="blue" tooltip="enable"><title>(2.56625,66)</title></rect><rect x="396" y="198.903" width="6" height="1.09682" stroke="black" stroke-width="1" fill="blue" tooltip="enable"><title>(2.60573,55)</title></rect><rect x="402" y="198.843" width="6" height="1.15665" stroke="black" stroke-width="1" fill="blue" tooltip="enable"><title>(2.64521,58)</title></rect><rect x="408" y="199.182" width="6" height="0.817629" stroke="black" stroke-width="1" fill="blue" tooltip="enable"><title>(2.68469,41)</title></rect><rect x="414" y="198.943" width="6" height="1.05693" stroke="black" stroke-width="1" fill="blue" tooltip="enable"><title>(2.72417,53)</title></rect><rect x="420" y="199.162" width="6" height="0.837571" stroke="black" stroke-width="1" fill="blue" tooltip="enable"><title>(2.76366,42)</title></rect><rect x="426" y="199.162" width="6" height="0.837571" stroke="black" stroke-width="1" fill="blue" tooltip="enable"><title>(2.80314,42)</title></rect><rect x="432" y="199.162" width="6" height="0.837571" stroke="black" stroke-width="1" fill="blue" tooltip="enable"><title>(2.84262,42)</title></rect><rect x="438" y="199.222" width="6" height="0.777745" stroke="black" stroke-width="1" fill="blue" tooltip="enable"><title>(2.8821,39)</title></rect><rect x="444" y="199.162" width="6" height="0.837571" stroke="black" stroke-width="1" fill="blue" tooltip="enable"><title>(2.92158,42)</title></rect><rect x="450" y="199.561" width="6" height="0.438728" stroke="black" stroke-width="1" fill="blue" tooltip="enable"><title>(2.96106,22)</title></rect><rect x="456" y="199.442" width="6" height="0.558381" stroke="black" stroke-width="1" fill="blue" tooltip="enable"><title>(3.00054,28)</title></rect><rect x="462" y="199.182" width="6" height="0.817629" stroke="black" stroke-width="1" fill="blue" tooltip="enable"><title>(3.04002,41)</title></rect><rect x="468" y="199.521" width="6" height="0.478612" stroke="black" stroke-width="1" fill="blue" tooltip="enable"><title>(3.0795,24)</title></rect><rect x="474" y="199.442" width="6" height="0.558381" stroke="black" stroke-width="1" fill="blue" tooltip="enable"><title>(3.11898,28)</title></rect><rect x="480" y="199.561" width="6" height="0.438728" stroke="black" stroke-width="1" fill="blue" tooltip="enable"><title>(3.15846,22)</title></rect><rect x="486" y="199.581" width="6" height="0.418786" stroke="black" stroke-width="1" fill="blue" tooltip="enable"><title>(3.19794,21)</title></rect><rect x="492" y="199.641" width="6" height="0.358959" stroke="black" stroke-width="1" fill="blue" tooltip="enable"><title>(3.23743,18)</title></rect><rect x="498" y="199.581" width="6" height="0.418786" stroke="black" stroke-width="1" fill="blue" tooltip="enable"><title>(3.27691,21)</title></rect><rect x="504" y="199.681" width="6" height="0.319075" stroke="black" stroke-width="1" fill="blue" tooltip="enable"><title>(3.31639,16)</title></rect><rect x="510" y="199.661" width="6" height="0.339017" stroke="black" stroke-width="1" fill="blue" tooltip="enable"><title>(3.35587,17)</title></rect><rect x="516" y="199.621" width="6" height="0.378901" stroke="black" stroke-width="1" fill="blue" tooltip="enable"><title>(3.39535,19)</title></rect><rect x="522" y="199.641" width="6" height="0.358959" stroke="black" stroke-width="1" fill="blue" tooltip="enable"><title>(3.43483,18)</title></rect><rect x="528" y="199.661" width="6" height="0.339017" stroke="black" stroke-width="1" fill="blue" tooltip="enable"><title>(3.47431,17)</title></rect><rect x="534" y="199.621" width="6" height="0.378901" stroke="black" stroke-width="1" fill="blue" tooltip="enable"><title>(3.51379,19)</title></rect><rect x="540" y="199.741" width="6" height="0.259248" stroke="black" stroke-width="1" fill="blue" tooltip="enable"><title>(3.55327,13)</title></rect><rect x="546" y="199.86" width="6" height="0.139595" stroke="black" stroke-width="1" fill="blue" tooltip="enable"><title>(3.59275,7)</title></rect><rect x="552" y="199.781" width="6" height="0.219364" stroke="black" stroke-width="1" fill="blue" tooltip="enable"><title>(3.63223,11)</title></rect><rect x="558" y="199.701" width="6" height="0.299133" stroke="black" stroke-width="1" fill="blue" tooltip="enable"><title>(3.67171,15)</title></rect><rect x="564" y="199.761" width="6" height="0.239306" stroke="black" stroke-width="1" fill="blue" tooltip="enable"><title>(3.71119,12)</title></rect><rect x="570" y="199.86" width="6" height="0.139595" stroke="black" stroke-width="1" fill="blue" tooltip="enable"><title>(3.75068,7)</title></rect><rect x="576" y="199.96" width="6" height="0.0398843" stroke="black" stroke-width="1" fill="blue" tooltip="enable"><title>(3.79016,2)</title></rect><rect x="582" y="199.781" width="6" height="0.219364" stroke="black" stroke-width="1" fill="blue" tooltip="enable"><title>(3.82964,11)</title></rect><rect x="588" y="199.94" width="6" height="0.0598265" stroke="black" stroke-width="1" fill="blue" tooltip="enable"><title>(3.86912,3)</title></rect><rect x="594" y="199.94" width="6" height="0.0598265" stroke="black" stroke-width="1" fill="blue" tooltip="enable"><title>(3.9086,3)</title></rect><text x="30" y="240" font-size="20" fill="black">0</text>
<text x="600" y="240" font-size="20" fill="black">3.94808</text>
<polyline points="0,220,600,220" stroke="black" stroke-width="1" fill="none"/>
<text x="720" y="20" font-size="20" fill="black">10029</text>
<text x="720" y="200" font-size="20" fill="black">0</text>
<polyline points="660,0,660,200" stroke="black" stroke-width="1" fill="none"/>
</svg>