<?xml version="1.0" standalone="yes"?>
<!-- SVG graphic -->
<svg xmlns='http://www.w3.org/2000/svg' xmlns:xlink='http://www.w3.org/1999/xlink'
 version="1.1">
<rect x="0" y="0" width="6" height="200" stroke="black" stroke-width="1" fill="blue" tooltip="enable"><title>(0,9954)</title></rect><rect x="6" y="43.038" width="6" height="156.962" stroke="black" stroke-width="1" fill="blue" tooltip="enable"><title>(0.0396428,7812)</title></rect><rect x="12" y="58.2077" width="6" height="141.792" stroke="black" stroke-width="1" fill="blue" tooltip="enable"><title>(0.0792857,7057)</title></rect><rect x="18" y="71.5089" width="6" height="128.491" stroke="black" stroke-width="1" fill="blue" tooltip="enable"><title>(0.118928,6395)</title></rect><rect x="24" y="86.4778" width="6" height="113.522" stroke="black" stroke-width="1" fill="blue" tooltip="enable"><title>(0.158571,5650)</title></rect><rect x="30" y="96.0016" width="6" height="103.998" stroke="black" stroke-width="1" fill="blue" tooltip="enable"><title>(0.198214,5176)</title></rect><rect x="36" y="99.4776" width="6" height="100.522" stroke="black" stroke-width="1" fill="blue" tooltip="enable"><title>(0.237857,5003)</title></rect><rect x="42" y="108.74" width="6" height="91.2598" stroke="black" stroke-width="1" fill="blue" tooltip="enable"><title>(0.2775,4542)</title></rect><rect x="48" y="115.391" width="6" height="84.6092" stroke="black" stroke-width="1" fill="blue" tooltip="enable"><title>(0.317143,4211)</title></rect><rect x="54" y="123.468" width="6" height="76.5321" stroke="black" stroke-width="1" fill="blue" tooltip="enable"><title>(0.356785,3809)</title></rect><rect x="60" y="130.621" width="6" height="69.3791" stroke="black" stroke-width="1" fill="blue" tooltip="enable"><title>(0.396428,3453)</title></rect><rect x="66" y="135.704" width="6" height="64.2958" stroke="black" stroke-width="1" fill="blue" tooltip="enable"><title>(0.436071,3200)</title></rect><rect x="72" y="141.21" width="6" height="58.7904" stroke="black" stroke-width="1" fill="blue" tooltip="enable"><title>(0.475714,2926)</title></rect><rect x="78" y="149.568" width="6" height="50.432" stroke="black" stroke-width="1" fill="blue" tooltip="enable"><title>(0.515357,2510)</title></rect><rect x="84" y="151.336" width="6" height="48.6639" stroke="black" stroke-width="1" fill="blue" tooltip="enable"><title>(0.555,2422)</title></rect><rect x="90" y="157.324" width="6" height="42.6763" stroke="black" stroke-width="1" fill="blue" tooltip="enable"><title>(0.594642,2124)</title></rect><rect x="96" y="161.001" width="6" height="38.9994" stroke="black" stroke-width="1" fill="blue" tooltip="enable"><title>(0.634285,1941)</title></rect><rect x="102" y="163.572" width="6" height="36.4276" stroke="black" stroke-width="1" fill="blue" tooltip="enable"><title>(0.673928,1813)</title></rect><rect x="108" y="167.531" width="6" height="32.4694" stroke="black" stroke-width="1" fill="blue" tooltip="enable"><title>(0.713571,1616)</title></rect><rect x="114" y="169.942" width="6" height="30.0583" stroke="black" stroke-width="1" fill="blue" tooltip="enable"><title>(0.753214,1496)</title></rect><rect x="120" y="171.63" width="6" height="28.3705" stroke="black" stroke-width="1" fill="blue" tooltip="enable"><title>(0.792857,1412)</title></rect><rect x="126" y="174.844" width="6" height="25.1557" stroke="black" stroke-width="1" fill="blue" tooltip="enable"><title>(0.832499,1252)</title></rect><rect x="132" y="177.798" width="6" height="22.2021" stroke="black" stroke-width="1" fill="blue" tooltip="enable"><title>(0.872142,1105)</title></rect><rect x="138" y="179.024" width="6" height="20.9765" stroke="black" stroke-width="1" fill="blue" tooltip="enable"><title>(0.911785,1044)</title></rect><rect x="144" y="180.892" width="6" height="19.1079" stroke="black" stroke-width="1" fill="blue" tooltip="enable"><title>(0.951428,951)</title></rect><rect x="150" y="183.886" width="6" height="16.1141" stroke="black" stroke-width="1" fill="blue" tooltip="enable"><title>(0.991071,802)</title></rect><rect x="156" y="183.183" width="6" height="16.8174" stroke="black" stroke-width="1" fill="blue" tooltip="enable"><title>(1.03071,837)</title></rect><rect x="162" y="185.654" width="6" height="14.346" stroke="black" stroke-width="1" fill="blue" tooltip="enable"><title>(1.07036,714)</title></rect><rect x="168" y="185.975" width="6" height="14.0245" stroke="black" stroke-width="1" fill="blue" tooltip="enable"><title>(1.11,698)</title></rect><rect x="174" y="187.523" width="6" height="12.4774" stroke="black" stroke-width="1" fill="blue" tooltip="enable"><title>(1.14964,621)</title></rect><rect x="180" y="188.547" width="6" height="11.4527" stroke="black" stroke-width="1" fill="blue" tooltip="enable"><title>(1.18928,570)</title></rect><rect x="186" y="188.788" width="6" height="11.2116" stroke="black" stroke-width="1" fill="blue" tooltip="enable"><title>(1.22893,558)</title></rect><rect x="192" y="190.778" width="6" height="9.22242" stroke="black" stroke-width="1" fill="blue" tooltip="enable"><title>(1.26857,459)</title></rect><rect x="198" y="191.119" width="6" height="8.88085" stroke="black" stroke-width="1" fill="blue" tooltip="enable"><title>(1.30821,442)</title></rect><rect x="204" y="191.4" width="6" height="8.59956" stroke="black" stroke-width="1" fill="blue" tooltip="enable"><title>(1.34786,428)</title></rect><rect x="210" y="191.461" width="6" height="8.53928" stroke="black" stroke-width="1" fill="blue" tooltip="enable"><title>(1.3875,425)</title></rect><rect x="216" y="192.345" width="6" height="7.65521" stroke="black" stroke-width="1" fill="blue" tooltip="enable"><title>(1.42714,381)</title></rect><rect x="222" y="193.41" width="6" height="6.59032" stroke="black" stroke-width="1" fill="blue" tooltip="enable"><title>(1.46678,328)</title></rect><rect x="228" y="194.133" width="6" height="5.86699" stroke="black" stroke-width="1" fill="blue" tooltip="enable"><title>(1.50643,292)</title></rect><rect x="234" y="194.153" width="6" height="5.8469" stroke="black" stroke-width="1" fill="blue" tooltip="enable"><title>(1.54607,291)</title></rect><rect x="240" y="194.655" width="6" height="5.34459" stroke="black" stroke-width="1" fill="blue" tooltip="enable"><title>(1.58571,266)</title></rect><rect x="246" y="194.917" width="6" height="5.08338" stroke="black" stroke-width="1" fill="blue" tooltip="enable"><title>(1.62536,253)</title></rect><rect x="252" y="195.339" width="6" height="4.66144" stroke="black" stroke-width="1" fill="blue" tooltip="enable"><title>(1.665,232)</title></rect><rect x="258" y="195.58" width="6" height="4.42033" stroke="black" stroke-width="1" fill="blue" tooltip="enable"><title>(1.70464,220)</title></rect><rect x="264" y="195.781" width="6" height="4.21941" stroke="black" stroke-width="1" fill="blue" tooltip="enable"><title>(1.74428,210)</title></rect><rect x="270" y="195.72" width="6" height="4.27969" stroke="black" stroke-width="1" fill="blue" tooltip="enable"><title>(1.78393,213)</title></rect><rect x="276" y="195.982" width="6" height="4.01849" stroke="black" stroke-width="1" fill="blue" tooltip="enable"><title>(1.82357,200)</title></rect><rect x="282" y="196.323" width="6" height="3.67691" stroke="black" stroke-width="1" fill="blue" tooltip="enable"><title>(1.86321,183)</title></rect><rect x="288" y="196.745" width="6" height="3.25497" stroke="black" stroke-width="1" fill="blue" tooltip="enable"><title>(1.90286,162)</title></rect><rect x="294" y="196.685" width="6" height="3.31525" stroke="black" stroke-width="1" fill="blue" tooltip="enable"><title>(1.9425,165)</title></rect><rect x="300" y="196.986" width="6" height="3.01386" stroke="black" stroke-width="1" fill="blue" tooltip="enable"><title>(1.98214,150)</title></rect><rect x="306" y="196.926" width="6" height="3.07414" stroke="black" stroke-width="1" fill="blue" tooltip="enable"><title>(2.02178,153)</title></rect><rect x="312" y="196.966" width="6" height="3.03396" stroke="black" stroke-width="1" fill="blue" tooltip="enable"><title>(2.06143,151)</title></rect><rect x="318" y="197.368" width="6" height="2.63211" stroke="black" stroke-width="1" fill="blue" tooltip="enable"><title>(2.10107,131)</title></rect><rect x="324" y="197.629" width="6" height="2.37091" stroke="black" stroke-width="1" fill="blue" tooltip="enable"><title>(2.14071,118)</title></rect><rect x="330" y="197.509" width="6" height="2.49146" stroke="black" stroke-width="1" fill="blue" tooltip="enable"><title>(2.18036,124)</title></rect><rect x="336" y="197.87" width="6" height="2.1298" stroke="black" stroke-width="1" fill="blue" tooltip="enable"><title>(2.22,106)</title></rect><rect x="342" y="198.051" width="6" height="1.94897" stroke="black" stroke-width="1" fill="blue" tooltip="enable"><title>(2.25964,97)</title></rect><rect x="348" y="198.071" width="6" height="1.92887" stroke="black" stroke-width="1" fill="blue" tooltip="enable"><title>(2.29928,96)</title></rect><rect x="354" y="198.373" width="6" height="1.62749" stroke="black" stroke-width="1" fill="blue" tooltip="enable"><title>(2.33893,81)</title></rect><rect x="360" y="198.433" width="6" height="1.56721" stroke="black" stroke-width="1" fill="blue" tooltip="enable"><title>(2.37857,78)</title></rect><rect x="366" y="198.433" width="6" height="1.56721" stroke="black" stroke-width="1" fill="blue" tooltip="enable"><title>(2.41821,78)</title></rect><rect x="372" y="198.614" width="6" height="1.38638" stroke="black" stroke-width="1" fill="blue" tooltip="enable"><title>(2.45786,69)</title></rect><rect x="378" y="198.473" width="6" height="1.52702" stroke="black" stroke-width="1" fill="blue" tooltip="enable"><title>(2.4975,76)</title></rect><rect x="384" y="198.774" width="6" height="1.22564" stroke="black" stroke-width="1" fill="blue" tooltip="enable"><title>(2.53714,61)</title></rect><rect x="390" y="198.734" width="6" height="1.26582" stroke="black" stroke-width="1" fill="blue" tooltip="enable"><title>(2.57678,63)</title></rect><rect x="396" y="198.714" width="6" height="1.28592" stroke="black" stroke-width="1" fill="blue" tooltip="enable"><title>(2.61643,64)</title></rect><rect x="402" y="199.015" width="6" height="0.984529" stroke="black" stroke-width="1" fill="blue" tooltip="enable"><title>(2.65607,49)</title></rect><rect x="408" y="199.096" width="6" height="0.904159" stroke="black" stroke-width="1" fill="blue" tooltip="enable"><title>(2.69571,45)</title></rect><rect x="414" y="198.975" width="6" height="1.02471" stroke="black" stroke-width="1" fill="blue" tooltip="enable"><title>(2.73536,51)</title></rect><rect x="420" y="198.955" width="6" height="1.04481" stroke="black" stroke-width="1" fill="blue" tooltip="enable"><title>(2.775,52)</title></rect><rect x="426" y="198.995" width="6" height="1.00462" stroke="black" stroke-width="1" fill="blue" tooltip="enable"><title>(2.81464,50)</title></rect><rect x="432" y="199.116" width="6" height="0.884067" stroke="black" stroke-width="1" fill="blue" tooltip="enable"><title>(2.85428,44)</title></rect><rect x="438" y="199.357" width="6" height="0.642958" stroke="black" stroke-width="1" fill="blue" tooltip="enable"><title>(2.89393,32)</title></rect><rect x="444" y="199.297" width="6" height="0.703235" stroke="black" stroke-width="1" fill="blue" tooltip="enable"><title>(2.93357,35)</title></rect><rect x="450" y="199.377" width="6" height="0.622865" stroke="black" stroke-width="1" fill="blue" tooltip="enable"><title>(2.97321,31)</title></rect><rect x="456" y="199.257" width="6" height="0.74342" stroke="black" stroke-width="1" fill="blue" tooltip="enable"><title>(3.01286,37)</title></rect><rect x="462" y="199.518" width="6" height="0.482218" stroke="black" stroke-width="1" fill="blue" tooltip="enable"><title>(3.0525,24)</title></rect><rect x="468" y="199.558" width="6" height="0.442033" stroke="black" stroke-width="1" fill="blue" tooltip="enable"><title>(3.09214,22)</title></rect><rect x="474" y="199.578" width="6" height="0.421941" stroke="black" stroke-width="1" fill="blue" tooltip="enable"><title>(3.13178,21)</title></rect><rect x="480" y="199.618" width="6" height="0.381756" stroke="black" stroke-width="1" fill="blue" tooltip="enable"><title>(3.17143,19)</title></rect><rect x="486" y="199.417" width="6" height="0.58268" stroke="black" stroke-width="1" fill="blue" tooltip="enable"><title>(3.21107,29)</title></rect><rect x="492" y="199.679" width="6" height="0.321479" stroke="black" stroke-width="1" fill="blue" tooltip="enable"><title>(3.25071,16)</title></rect><rect x="498" y="199.578" width="6" height="0.421941" stroke="black" stroke-width="1" fill="blue" tooltip="enable"><title>(3.29035,21)</title></rect><rect x="504" y="199.417" width="6" height="0.58268" stroke="black" stroke-width="1" fill="blue" tooltip="enable"><title>(3.33,29)</title></rect><rect x="510" y="199.638" width="6" height="0.361664" stroke="black" stroke-width="1" fill="blue" tooltip="enable"><title>(3.36964,18)</title></rect><rect x="516" y="199.658" width="6" height="0.341571" stroke="black" stroke-width="1" fill="blue" tooltip="enable"><title>(3.40928,17)</title></rect><rect x="522" y="199.658" width="6" height="0.341571" stroke="black" stroke-width="1" fill="blue" tooltip="enable"><title>(3.44893,17)</title></rect><rect x="528" y="199.779" width="6" height="0.221017" stroke="black" stroke-width="1" fill="blue" tooltip="enable"><title>(3.48857,11)</title></rect><rect x="534" y="199.618" width="6" height="0.381756" stroke="black" stroke-width="1" fill="blue" tooltip="enable"><title>(3.52821,19)</title></rect><rect x="540" y="199.799" width="6" height="0.200924" stroke="black" stroke-width="1" fill="blue" tooltip="enable"><title>(3.56785,10)</title></rect><rect x="546" y="199.819" width="6" height="0.180832" stroke="black" stroke-width="1" fill="blue" tooltip="enable"><title>(3.6075,9)</title></rect><rect x="552" y="199.779" width="6" height="0.221017" stroke="black" stroke-width="1" fill="blue" tooltip="enable"><title>(3.64714,11)</title></rect><rect x="558" y="199.759" width="6" height="0.241109" stroke="black" stroke-width="1" fill="blue" tooltip="enable"><title>(3.68678,12)</title></rect><rect x="564" y="199.9" width="6" height="0.100462" stroke="black" stroke-width="1" fill="blue" tooltip="enable"><title>(3.72643,5)</title></rect><rect x="570" y="199.859" width="6" height="0.140647" stroke="black" stroke-width="1" fill="blue" tooltip="enable"><title>(3.76607,7)</title></rect><rect x="576" y="199.859" width="6" height="0.140647" stroke="black" stroke-width="1" fill="blue" tooltip="enable"><title>(3.80571,7)</title></rect><rect x="582" y="199.92" width="6" height="0.0803697" stroke="black" stroke-width="1" fill="blue" tooltip="enable"><title>(3.84535,4)</title></rect><rect x="588" y="199.94" width="6" height="0.0602773" stroke="black" stroke-width="1" fill="blue" tooltip="enable"><title>(3.885,3)</title></rect><rect x="594" y="199.98" width="6" height="0.0200924" stroke="black" stroke-width="1" fill="blue" tooltip="enable"><title>(3.92464,1)</title></rect><text x="30" y="240" font-size="20" fill="black">0</text>
<text x="600" y="240" font-size="20" fill="black">3.96428</text>
<polyline points="0,220,600,220" stroke="black" stroke-width="1" fill="none"/>
<text x="720" y="20" font-size="20" fill="black">9954</text>
<text x="720" y="200" font-size="20" fill="black">0</text>
<polyline points="660,0,660,200" stroke="black" stroke-width="1" fill="none"/>
</svg>