<?xml version="1.0" standalone="yes"?>
<!-- SVG graphic -->
<svg xmlns='http://www.w3.org/2000/svg' xmlns:xlink='http://www.w3.org/1999/xlink'
 version="1.1">
<rect x="0" y="0" width="6" height="200" stroke="black" stroke-width="1" fill="blue" tooltip="enable"><title>(0,10491)</title></rect><rect x="6" y="56.048" width="6" height="143.952" stroke="black" stroke-width="1" fill="blue" tooltip="enable"><title>(0.0390337,7551)</title></rect><rect x="12" y="80.6215" width="6" height="119.379" stroke="black" stroke-width="1" fill="blue" tooltip="enable"><title>(0.0780674,6262)</title></rect><rect x="18" y="94.4047" width="6" height="105.595" stroke="black" stroke-width="1" fill="blue" tooltip="enable"><title>(0.117101,5539)</title></rect><rect x="24" y="104.966" width="6" height="95.0338" stroke="black" stroke-width="1" fill="blue" tooltip="enable"><title>(0.156135,4985)</title></rect><rect x="30" y="115.223" width="6" height="84.7774" stroke="black" stroke-width="1" fill="blue" tooltip="enable"><title>(0.195169,4447)</title></rect><rect x="36" y="126.604" width="6" height="73.3962" stroke="black" stroke-width="1" fill="blue" tooltip="enable"><title>(0.234202,3850)</title></rect><rect x="42" y="134.172" width="6" height="65.8279" stroke="black" stroke-width="1" fill="blue" tooltip="enable"><title>(0.273236,3453)</title></rect><rect x="48" y="141.13" width="6" height="58.8695" stroke="black" stroke-width="1" fill="blue" tooltip="enable"><title>(0.31227,3088)</title></rect><rect x="54" y="148.585" width="6" height="51.4155" stroke="black" stroke-width="1" fill="blue" tooltip="enable"><title>(0.351303,2697)</title></rect><rect x="60" y="153.56" width="6" height="46.4398" stroke="black" stroke-width="1" fill="blue" tooltip="enable"><title>(0.390337,2436)</title></rect><rect x="66" y="158.155" width="6" height="41.8454" stroke="black" stroke-width="1" fill="blue" tooltip="enable"><title>(0.429371,2195)</title></rect><rect x="72" y="161.415" width="6" height="38.5855" stroke="black" stroke-width="1" fill="blue" tooltip="enable"><title>(0.468405,2024)</title></rect><rect x="78" y="165.265" width="6" height="34.7345" stroke="black" stroke-width="1" fill="blue" tooltip="enable"><title>(0.507438,1822)</title></rect><rect x="84" y="167.858" width="6" height="32.1418" stroke="black" stroke-width="1" fill="blue" tooltip="enable"><title>(0.546472,1686)</title></rect><rect x="90" y="171.747" width="6" height="28.2528" stroke="black" stroke-width="1" fill="blue" tooltip="enable"><title>(0.585506,1482)</title></rect><rect x="96" y="175.026" width="6" height="24.9738" stroke="black" stroke-width="1" fill="blue" tooltip="enable"><title>(0.624539,1310)</title></rect><rect x="102" y="176.971" width="6" height="23.0293" stroke="black" stroke-width="1" fill="blue" tooltip="enable"><title>(0.663573,1208)</title></rect><rect x="108" y="179.087" width="6" height="20.9132" stroke="black" stroke-width="1" fill="blue" tooltip="enable"><title>(0.702607,1097)</title></rect><rect x="114" y="181.108" width="6" height="18.8924" stroke="black" stroke-width="1" fill="blue" tooltip="enable"><title>(0.741641,991)</title></rect><rect x="120" y="182.232" width="6" height="17.7676" stroke="black" stroke-width="1" fill="blue" tooltip="enable"><title>(0.780674,932)</title></rect><rect x="126" y="184.196" width="6" height="15.804" stroke="black" stroke-width="1" fill="blue" tooltip="enable"><title>(0.819708,829)</title></rect><rect x="132" y="186.369" width="6" height="13.6307" stroke="black" stroke-width="1" fill="blue" tooltip="enable"><title>(0.858742,715)</title></rect><rect x="138" y="186.446" width="6" height="13.5545" stroke="black" stroke-width="1" fill="blue" tooltip="enable"><title>(0.897776,711)</title></rect><rect x="144" y="187.685" width="6" height="12.3153" stroke="black" stroke-width="1" fill="blue" tooltip="enable"><title>(0.936809,646)</title></rect><rect x="150" y="189.324" width="6" height="10.6758" stroke="black" stroke-width="1" fill="blue" tooltip="enable"><title>(0.975843,560)</title></rect><rect x="156" y="190.182" width="6" height="9.81794" stroke="black" stroke-width="1" fill="blue" tooltip="enable"><title>(1.01488,515)</title></rect><rect x="162" y="190.43" width="6" height="9.57011" stroke="black" stroke-width="1" fill="blue" tooltip="enable"><title>(1.05391,502)</title></rect><rect x="168" y="191.269" width="6" height="8.73129" stroke="black" stroke-width="1" fill="blue" tooltip="enable"><title>(1.09294,458)</title></rect><rect x="174" y="191.822" width="6" height="8.17844" stroke="black" stroke-width="1" fill="blue" tooltip="enable"><title>(1.13198,429)</title></rect><rect x="180" y="192.584" width="6" height="7.41588" stroke="black" stroke-width="1" fill="blue" tooltip="enable"><title>(1.17101,389)</title></rect><rect x="186" y="193.652" width="6" height="6.3483" stroke="black" stroke-width="1" fill="blue" tooltip="enable"><title>(1.21005,333)</title></rect><rect x="192" y="193.251" width="6" height="6.74864" stroke="black" stroke-width="1" fill="blue" tooltip="enable"><title>(1.24908,354)</title></rect><rect x="198" y="194.166" width="6" height="5.83357" stroke="black" stroke-width="1" fill="blue" tooltip="enable"><title>(1.28811,306)</title></rect><rect x="204" y="194.662" width="6" height="5.33791" stroke="black" stroke-width="1" fill="blue" tooltip="enable"><title>(1.32715,280)</title></rect><rect x="210" y="195.177" width="6" height="4.82318" stroke="black" stroke-width="1" fill="blue" tooltip="enable"><title>(1.36618,253)</title></rect><rect x="216" y="195.444" width="6" height="4.55629" stroke="black" stroke-width="1" fill="blue" tooltip="enable"><title>(1.40521,239)</title></rect><rect x="222" y="195.806" width="6" height="4.19407" stroke="black" stroke-width="1" fill="blue" tooltip="enable"><title>(1.44425,220)</title></rect><rect x="228" y="195.653" width="6" height="4.34658" stroke="black" stroke-width="1" fill="blue" tooltip="enable"><title>(1.48328,228)</title></rect><rect x="234" y="196.702" width="6" height="3.29806" stroke="black" stroke-width="1" fill="blue" tooltip="enable"><title>(1.52231,173)</title></rect><rect x="240" y="196.607" width="6" height="3.39338" stroke="black" stroke-width="1" fill="blue" tooltip="enable"><title>(1.56135,178)</title></rect><rect x="246" y="196.95" width="6" height="3.05023" stroke="black" stroke-width="1" fill="blue" tooltip="enable"><title>(1.60038,160)</title></rect><rect x="252" y="196.797" width="6" height="3.20275" stroke="black" stroke-width="1" fill="blue" tooltip="enable"><title>(1.63942,168)</title></rect><rect x="258" y="196.797" width="6" height="3.20275" stroke="black" stroke-width="1" fill="blue" tooltip="enable"><title>(1.67845,168)</title></rect><rect x="264" y="197.636" width="6" height="2.36393" stroke="black" stroke-width="1" fill="blue" tooltip="enable"><title>(1.71748,124)</title></rect><rect x="270" y="197.083" width="6" height="2.91679" stroke="black" stroke-width="1" fill="blue" tooltip="enable"><title>(1.75652,153)</title></rect><rect x="276" y="197.484" width="6" height="2.51644" stroke="black" stroke-width="1" fill="blue" tooltip="enable"><title>(1.79555,132)</title></rect><rect x="282" y="198.094" width="6" height="1.9064" stroke="black" stroke-width="1" fill="blue" tooltip="enable"><title>(1.83458,100)</title></rect><rect x="288" y="197.865" width="6" height="2.13516" stroke="black" stroke-width="1" fill="blue" tooltip="enable"><title>(1.87362,112)</title></rect><rect x="294" y="197.617" width="6" height="2.38299" stroke="black" stroke-width="1" fill="blue" tooltip="enable"><title>(1.91265,125)</title></rect><rect x="300" y="198.17" width="6" height="1.83014" stroke="black" stroke-width="1" fill="blue" tooltip="enable"><title>(1.95169,96)</title></rect><rect x="306" y="198.685" width="6" height="1.31541" stroke="black" stroke-width="1" fill="blue" tooltip="enable"><title>(1.99072,69)</title></rect><rect x="312" y="198.341" width="6" height="1.65856" stroke="black" stroke-width="1" fill="blue" tooltip="enable"><title>(2.02975,87)</title></rect><rect x="318" y="198.513" width="6" height="1.48699" stroke="black" stroke-width="1" fill="blue" tooltip="enable"><title>(2.06879,78)</title></rect><rect x="324" y="198.627" width="6" height="1.37261" stroke="black" stroke-width="1" fill="blue" tooltip="enable"><title>(2.10782,72)</title></rect><rect x="330" y="198.589" width="6" height="1.41073" stroke="black" stroke-width="1" fill="blue" tooltip="enable"><title>(2.14685,74)</title></rect><rect x="336" y="198.666" width="6" height="1.33448" stroke="black" stroke-width="1" fill="blue" tooltip="enable"><title>(2.18589,70)</title></rect><rect x="342" y="198.723" width="6" height="1.27729" stroke="black" stroke-width="1" fill="blue" tooltip="enable"><title>(2.22492,67)</title></rect><rect x="348" y="198.78" width="6" height="1.22009" stroke="black" stroke-width="1" fill="blue" tooltip="enable"><title>(2.26396,64)</title></rect><rect x="354" y="199.009" width="6" height="0.991326" stroke="black" stroke-width="1" fill="blue" tooltip="enable"><title>(2.30299,52)</title></rect><rect x="360" y="199.066" width="6" height="0.934134" stroke="black" stroke-width="1" fill="blue" tooltip="enable"><title>(2.34202,49)</title></rect><rect x="366" y="198.818" width="6" height="1.18197" stroke="black" stroke-width="1" fill="blue" tooltip="enable"><title>(2.38106,62)</title></rect><rect x="372" y="199.047" width="6" height="0.953198" stroke="black" stroke-width="1" fill="blue" tooltip="enable"><title>(2.42009,50)</title></rect><rect x="378" y="199.199" width="6" height="0.800686" stroke="black" stroke-width="1" fill="blue" tooltip="enable"><title>(2.45912,42)</title></rect><rect x="384" y="199.237" width="6" height="0.762558" stroke="black" stroke-width="1" fill="blue" tooltip="enable"><title>(2.49816,40)</title></rect><rect x="390" y="199.199" width="6" height="0.800686" stroke="black" stroke-width="1" fill="blue" tooltip="enable"><title>(2.53719,42)</title></rect><rect x="396" y="199.257" width="6" height="0.743494" stroke="black" stroke-width="1" fill="blue" tooltip="enable"><title>(2.57623,39)</title></rect><rect x="402" y="199.371" width="6" height="0.629111" stroke="black" stroke-width="1" fill="blue" tooltip="enable"><title>(2.61526,33)</title></rect><rect x="408" y="199.314" width="6" height="0.686303" stroke="black" stroke-width="1" fill="blue" tooltip="enable"><title>(2.65429,36)</title></rect><rect x="414" y="199.333" width="6" height="0.667239" stroke="black" stroke-width="1" fill="blue" tooltip="enable"><title>(2.69333,35)</title></rect><rect x="420" y="199.333" width="6" height="0.667239" stroke="black" stroke-width="1" fill="blue" tooltip="enable"><title>(2.73236,35)</title></rect><rect x="426" y="199.6" width="6" height="0.400343" stroke="black" stroke-width="1" fill="blue" tooltip="enable"><title>(2.77139,21)</title></rect><rect x="432" y="199.619" width="6" height="0.381279" stroke="black" stroke-width="1" fill="blue" tooltip="enable"><title>(2.81043,20)</title></rect><rect x="438" y="199.466" width="6" height="0.533791" stroke="black" stroke-width="1" fill="blue" tooltip="enable"><title>(2.84946,28)</title></rect><rect x="444" y="199.523" width="6" height="0.476599" stroke="black" stroke-width="1" fill="blue" tooltip="enable"><title>(2.8885,25)</title></rect><rect x="450" y="199.485" width="6" height="0.514727" stroke="black" stroke-width="1" fill="blue" tooltip="enable"><title>(2.92753,27)</title></rect><rect x="456" y="199.542" width="6" height="0.457535" stroke="black" stroke-width="1" fill="blue" tooltip="enable"><title>(2.96656,24)</title></rect><rect x="462" y="199.638" width="6" height="0.362215" stroke="black" stroke-width="1" fill="blue" tooltip="enable"><title>(3.0056,19)</title></rect><rect x="468" y="199.485" width="6" height="0.514727" stroke="black" stroke-width="1" fill="blue" tooltip="enable"><title>(3.04463,27)</title></rect><rect x="474" y="199.619" width="6" height="0.381279" stroke="black" stroke-width="1" fill="blue" tooltip="enable"><title>(3.08366,20)</title></rect><rect x="480" y="199.619" width="6" height="0.381279" stroke="black" stroke-width="1" fill="blue" tooltip="enable"><title>(3.1227,20)</title></rect><rect x="486" y="199.638" width="6" height="0.362215" stroke="black" stroke-width="1" fill="blue" tooltip="enable"><title>(3.16173,19)</title></rect><rect x="492" y="199.79" width="6" height="0.209704" stroke="black" stroke-width="1" fill="blue" tooltip="enable"><title>(3.20076,11)</title></rect><rect x="498" y="199.695" width="6" height="0.305023" stroke="black" stroke-width="1" fill="blue" tooltip="enable"><title>(3.2398,16)</title></rect><rect x="504" y="199.771" width="6" height="0.228768" stroke="black" stroke-width="1" fill="blue" tooltip="enable"><title>(3.27883,12)</title></rect><rect x="510" y="199.676" width="6" height="0.324087" stroke="black" stroke-width="1" fill="blue" tooltip="enable"><title>(3.31787,17)</title></rect><rect x="516" y="199.752" width="6" height="0.247831" stroke="black" stroke-width="1" fill="blue" tooltip="enable"><title>(3.3569,13)</title></rect><rect x="522" y="199.771" width="6" height="0.228768" stroke="black" stroke-width="1" fill="blue" tooltip="enable"><title>(3.39593,12)</title></rect><rect x="528" y="199.771" width="6" height="0.228768" stroke="black" stroke-width="1" fill="blue" tooltip="enable"><title>(3.43497,12)</title></rect><rect x="534" y="199.905" width="6" height="0.0953198" stroke="black" stroke-width="1" fill="blue" tooltip="enable"><title>(3.474,5)</title></rect><rect x="540" y="199.847" width="6" height="0.152512" stroke="black" stroke-width="1" fill="blue" tooltip="enable"><title>(3.51303,8)</title></rect><rect x="546" y="199.886" width="6" height="0.114384" stroke="black" stroke-width="1" fill="blue" tooltip="enable"><title>(3.55207,6)</title></rect><rect x="552" y="199.943" width="6" height="0.0571919" stroke="black" stroke-width="1" fill="blue" tooltip="enable"><title>(3.5911,3)</title></rect><rect x="558" y="199.886" width="6" height="0.114384" stroke="black" stroke-width="1" fill="blue" tooltip="enable"><title>(3.63014,6)</title></rect><rect x="564" y="199.867" width="6" height="0.133448" stroke="black" stroke-width="1" fill="blue" tooltip="enable"><title>(3.66917,7)</title></rect><rect x="570" y="199.924" width="6" height="0.0762558" stroke="black" stroke-width="1" fill="blue" tooltip="enable"><title>(3.7082,4)</title></rect><rect x="576" y="199.962" width="6" height="0.0381279" stroke="black" stroke-width="1" fill="blue" tooltip="enable"><title>(3.74724,2)</title></rect><rect x="582" y="199.905" width="6" height="0.0953198" stroke="black" stroke-width="1" fill="blue" tooltip="enable"><title>(3.78627,5)</title></rect><rect x="588" y="199.962" width="6" height="0.0381279" stroke="black" stroke-width="1" fill="blue" tooltip="enable"><title>(3.8253,2)</title></rect><rect x="594" y="199.981" width="6" height="0.019064" stroke="black" stroke-width="1" fill="blue" tooltip="enable"><title>(3.86434,1)</title></rect><text x="30" y="240" font-size="20" fill="black">0</text>
<text x="600" y="240" font-size="20" fill="black">3.90337</text>
<polyline points="0,220,600,220" stroke="black" stroke-width="1" fill="none"/>
<text x="720" y="20" font-size="20" fill="black">10491</text>
<text x="720" y="200" font-size="20" fill="black">0</text>
<polyline points="660,0,660,200" stroke="black" stroke-width="1" fill="none"/>
</svg>